<svg width="32" height="32" viewBox="0 0 32 32" fill="none" xmlns="http://www.w3.org/2000/svg">
<path d="M8.86867 4.31585L25.5321 14.2974C25.8784 14.5075 26.1648 14.8033 26.3635 15.1563C26.5622 15.5092 26.6666 15.9075 26.6666 16.3126C26.6666 16.7176 26.5622 17.1159 26.3635 17.4689C26.1648 17.8218 25.8784 18.1176 25.5321 18.3277L8.86867 28.3093C8.51228 28.5151 8.10821 28.624 7.69667 28.6251C7.28513 28.6263 6.88046 28.5196 6.52292 28.3158C6.16538 28.112 5.86743 27.8182 5.65872 27.4635C5.45002 27.1088 5.33782 26.7056 5.33329 26.2941L5.33329 6.33101C5.33782 5.91949 5.45002 5.51633 5.65872 5.16164C5.86743 4.80694 6.16538 4.51308 6.52292 4.30928C6.88046 4.10548 7.28513 3.99886 7.69667 4.00001C8.10821 4.00116 8.51228 4.11005 8.86867 4.31585Z" stroke="#3F3F3F" stroke-width="2.25" stroke-linecap="round" stroke-linejoin="round"/>
</svg>
