<svg width="28" height="28" viewBox="0 0 28 28" fill="none" xmlns="http://www.w3.org/2000/svg">
<path d="M23.3333 10.5H12.8333C11.5447 10.5 10.5 11.5447 10.5 12.8333V23.3333C10.5 24.622 11.5447 25.6667 12.8333 25.6667H23.3333C24.622 25.6667 25.6667 24.622 25.6667 23.3333V12.8333C25.6667 11.5447 24.622 10.5 23.3333 10.5Z" stroke="#263B74" stroke-width="2" stroke-linecap="round" stroke-linejoin="round"/>
<path d="M5.83337 17.5002H4.66671C4.04787 17.5002 3.45438 17.2543 3.01679 16.8167C2.57921 16.3792 2.33337 15.7857 2.33337 15.1668V4.66683C2.33337 4.04799 2.57921 3.4545 3.01679 3.01691C3.45438 2.57933 4.04787 2.3335 4.66671 2.3335H15.1667C15.7855 2.3335 16.379 2.57933 16.8166 3.01691C17.2542 3.4545 17.5 4.04799 17.5 4.66683V5.8335" stroke="#f3c14a" stroke-width="2" stroke-linecap="round" stroke-linejoin="round"/>
</svg>
