<svg width="12" height="12" viewBox="0 0 12 12" fill="none" xmlns="http://www.w3.org/2000/svg">
<g clip-path="url(#clip0_1013_12403)">
<path d="M6 11C8.76142 11 11 8.76142 11 6C11 3.23858 8.76142 1 6 1C3.23858 1 1 3.23858 1 6C1 8.76142 3.23858 11 6 11Z" stroke="#263B74" stroke-linecap="round" stroke-linejoin="round"/>
<path d="M2.46497 2.46484L4.58497 4.58484" stroke="#263B74" stroke-linecap="round" stroke-linejoin="round"/>
<path d="M7.41504 7.41504L9.53504 9.53504" stroke="#263B74" stroke-linecap="round" stroke-linejoin="round"/>
<path d="M7.41504 4.58484L9.53504 2.46484" stroke="#263B74" stroke-linecap="round" stroke-linejoin="round"/>
<path d="M7.41504 4.58482L9.18004 2.81982" stroke="#263B74" stroke-linecap="round" stroke-linejoin="round"/>
<path d="M2.46497 9.53504L4.58497 7.41504" stroke="#263B74" stroke-linecap="round" stroke-linejoin="round"/>
<path d="M6 8C7.10457 8 8 7.10457 8 6C8 4.89543 7.10457 4 6 4C4.89543 4 4 4.89543 4 6C4 7.10457 4.89543 8 6 8Z" stroke="#e5756a" stroke-linecap="round" stroke-linejoin="round"/>
</g>
<defs>
<clipPath id="clip0_1013_12403">
<rect width="12" height="12" fill="white"/>
</clipPath>
</defs>
</svg>
